<?xml version="1.0" encoding="utf-8"?>
<!-- Generator: Adobe Illustrator 26.0.2, SVG Export Plug-In . SVG Version: 6.00 Build 0)  -->
<svg version="1.1" id="Layer_1" xmlns="http://www.w3.org/2000/svg" xmlns:xlink="http://www.w3.org/1999/xlink" x="0px" y="0px"
	 viewBox="0 0 93.2 18" style="enable-background:new 0 0 93.2 18;" xml:space="preserve">
<style type="text/css">
	.st0{fill:#FFF2D9;}
</style>
<path class="st0" d="M16.2,1.8c0.6,0,1,0.1,1.4,0.4c0.3,0.3,0.5,0.6,0.5,1.1c0,0.2,0,0.4-0.1,0.6l-0.6,2.2c-0.1,0.4-0.3,0.7-0.6,0.9
	c-0.3,0.2-0.6,0.3-1,0.3c-0.4,0-0.7-0.1-1-0.2c-0.2-0.2-0.4-0.5-0.5-0.8L14,4.8c-0.1-0.2-0.1-0.4-0.2-0.5s-0.3-0.1-0.6-0.1h-2.4
	L9.4,8.9h0.5c0.2,0,0.4,0,0.6-0.1c0.2-0.1,0.4-0.2,0.6-0.4l0.7-0.6c0.3-0.2,0.5-0.4,0.7-0.5c0.2-0.1,0.5-0.2,0.7-0.2
	c0.3,0,0.6,0.1,0.7,0.3c0.2,0.2,0.3,0.4,0.3,0.7c0,0.1,0,0.3-0.1,0.5l-1.1,3.6c-0.2,0.8-0.7,1.2-1.3,1.2c-0.5,0-0.9-0.3-1.2-0.8
	l-0.4-0.8c-0.1-0.2-0.2-0.4-0.3-0.4c-0.1-0.1-0.2-0.1-0.4-0.1H8.7l-1,3.6c0,0.1,0,0.2,0,0.4c0,0.2,0,0.4,0.1,0.6
	C7.9,16,8,16.1,8.3,16.3c0.2,0.1,0.3,0.3,0.4,0.4c0.1,0.1,0.1,0.2,0.1,0.3c0,0.3-0.1,0.5-0.4,0.6c-0.3,0.1-0.6,0.2-1.1,0.2h-6
	c-0.4,0-0.7-0.1-0.9-0.2C0,17.4,0,17.1,0,16.9c0-0.1,0.1-0.3,0.2-0.3c0.1-0.1,0.2-0.2,0.4-0.3c0.3-0.2,0.5-0.3,0.6-0.5
	c0.2-0.2,0.3-0.4,0.4-0.8l3-10.3C4.6,4.4,4.7,4.2,4.7,4c0-0.2,0-0.4-0.1-0.5c0-0.1-0.1-0.3-0.2-0.4C4.2,2.9,4.1,2.7,4.1,2.6
	c0,0,0-0.1,0-0.3C4.2,2.1,4.4,2,4.6,1.9c0.2-0.1,0.6-0.1,1-0.1H16.2z M25,5c2.2,0,3.8,0.4,4.8,1.3c1,0.9,1.6,2,1.6,3.5
	c0,0.5-0.1,1-0.2,1.6c-0.3,1.3-0.9,2.5-1.7,3.5c-0.8,1-1.9,1.7-3.1,2.3c-1.2,0.5-2.5,0.8-3.9,0.8c-2.2,0-3.9-0.4-4.9-1.3
	c-1.1-0.9-1.6-2.1-1.6-3.6c0-0.5,0.1-1,0.2-1.7c0.3-1.2,0.9-2.4,1.7-3.3c0.9-1,1.9-1.7,3.1-2.3C22.3,5.3,23.6,5,25,5z M25,7.2
	c-0.3,0-0.7,0.3-1.1,0.9c-0.4,0.6-0.8,1.7-1.3,3.4c-0.5,1.7-0.8,2.8-0.8,3.5c0,0.4,0.1,0.6,0.2,0.7c0.1,0.1,0.3,0.2,0.5,0.2
	c0.3,0,0.7-0.3,1-0.9c0.4-0.6,0.8-1.8,1.4-3.6c0.5-1.6,0.7-2.7,0.7-3.4c0-0.3-0.1-0.6-0.2-0.7C25.3,7.2,25.1,7.2,25,7.2z M46.3,14.4
	c0,0.1,0,0.2,0,0.3c0,0.1,0,0.2,0.1,0.3c0.1,0.1,0.1,0.1,0.2,0.1c0.2,0,0.4-0.1,0.5-0.2c0.1-0.2,0.2-0.3,0.3-0.3
	c0.1,0,0.1,0.1,0.2,0.2c0,0.1,0.1,0.2,0.1,0.4c0,0.5-0.1,0.9-0.5,1.4c-0.3,0.4-0.8,0.8-1.4,1.1c-0.6,0.3-1.3,0.4-2.2,0.4
	c-1.1,0-1.9-0.2-2.5-0.7c-0.6-0.5-0.9-1.2-1-2c0-0.6,0.1-1.3,0.4-2l1.3-3.5C41.9,9.6,42,9.4,42,9.3c0-0.2-0.1-0.4-0.2-0.5
	c-0.1-0.1-0.3-0.2-0.5-0.2c-0.4,0-0.7,0.2-1,0.5c-0.3,0.3-0.6,0.7-0.7,1.2l-1.5,4.9C38,15.4,38,15.6,38,15.7c0,0.2,0,0.4,0.1,0.5
	c0.1,0.1,0.2,0.2,0.3,0.4c0.1,0.1,0.2,0.2,0.2,0.3s0.1,0.2,0,0.3c-0.1,0.2-0.2,0.4-0.5,0.5c-0.2,0.1-0.6,0.1-1.1,0.1h-5.5
	c-0.4,0-0.7-0.1-0.9-0.2c-0.2-0.1-0.3-0.3-0.2-0.6c0.1-0.2,0.2-0.4,0.5-0.5c0.2-0.1,0.4-0.3,0.6-0.5c0.2-0.2,0.3-0.5,0.4-0.8
	l2.1-6.9c0-0.1,0-0.2,0-0.3c0-0.2,0-0.3-0.1-0.4c-0.1-0.1-0.2-0.2-0.3-0.4c-0.2-0.1-0.3-0.2-0.3-0.3c-0.1-0.1-0.1-0.2,0-0.4
	c0.1-0.4,0.6-0.7,1.5-1C35.8,5.2,36.8,5,37.8,5c0.8,0,1.4,0.2,1.9,0.7c0.5,0.4,0.7,1,0.6,1.8c0.7-0.9,1.4-1.6,2.1-1.9
	C43.1,5.2,43.9,5,44.8,5c1,0,1.8,0.3,2.4,0.9C47.7,6.5,48,7.3,48,8.2c0,0.5-0.1,1-0.2,1.5L46.3,14.4z M62.1,14.3c0,0.1,0,0.2,0,0.3
	c0,0.1,0,0.2,0.1,0.3c0.1,0.1,0.1,0.1,0.2,0.1c0.2,0,0.4-0.1,0.5-0.2c0.1-0.2,0.2-0.3,0.3-0.3c0.1,0,0.1,0.1,0.2,0.2
	c0,0.1,0.1,0.2,0.1,0.4c0,0.4-0.2,0.9-0.5,1.3c-0.3,0.4-0.8,0.8-1.4,1.1c-0.6,0.3-1.2,0.4-1.9,0.4c-0.8,0-1.5-0.2-2.1-0.5
	c-0.6-0.3-1-0.7-1.2-1.2c-0.4,0.6-0.9,1-1.5,1.2c-0.6,0.3-1.2,0.4-1.8,0.4c-0.7,0-1.4-0.2-2.1-0.6c-0.6-0.4-1.1-0.9-1.5-1.6
	C49.1,15,49,14.2,49,13.4c0-1.5,0.3-2.8,0.8-4.1c0.6-1.3,1.3-2.3,2.3-3.1c1-0.8,2.1-1.2,3.4-1.2c0.7,0,1.3,0.1,1.8,0.2
	c0.5,0.2,0.9,0.4,1.3,0.7l0.8-2.7c0-0.1,0.1-0.3,0.1-0.4c0-0.2,0-0.3-0.1-0.4c-0.1-0.1-0.2-0.2-0.3-0.3c-0.2-0.1-0.3-0.2-0.4-0.3
	c-0.1-0.1-0.1-0.2,0-0.4c0.1-0.4,0.6-0.7,1.5-1C61,0.1,62,0,63,0c0.9,0,1.6,0.2,2,0.5c0.4,0.4,0.7,0.8,0.7,1.4c0,0.4-0.1,0.7-0.2,1
	L62.1,14.3z M58.1,7.5c-0.3-0.2-0.5-0.3-0.8-0.3c-0.5,0-0.9,0.3-1.4,1c-0.4,0.7-0.8,1.5-1.1,2.5s-0.4,1.9-0.4,2.6
	c0,0.9,0.3,1.3,0.9,1.3c0.2,0,0.4-0.1,0.5-0.2c0.1-0.2,0.3-0.5,0.4-0.8L58.1,7.5z M73.3,4.9c2,0,3.5,0.3,4.4,1
	C78.6,6.5,79,7.4,79,8.4c0,0.3,0,0.6-0.1,0.8c-0.2,1.1-0.9,1.8-2,2.3c-1.1,0.4-2.4,0.7-3.9,0.7c-0.8,0-1.5,0-2.1-0.1
	c0,0.8,0.2,1.4,0.7,1.8c0.5,0.3,1.1,0.5,1.9,0.5c0.4,0,0.8,0,1.1-0.1c0.4-0.1,0.8-0.2,1.3-0.4c0.4-0.2,0.8-0.2,0.9-0.2
	c0.2,0,0.3,0.1,0.3,0.3c0,0.6-0.2,1.2-0.6,1.8c-0.4,0.6-1.1,1.1-1.9,1.6c-0.8,0.4-1.9,0.6-3.1,0.6c-1.8,0-3.2-0.4-4.4-1.3
	c-1.1-0.9-1.7-2.2-1.7-3.9c0-0.5,0.1-1,0.2-1.7c0.4-2,1.3-3.4,2.6-4.4C69.7,5.4,71.3,4.9,73.3,4.9z M71.1,10.6c0.1,0,0.2,0,0.3,0
	c0.7,0,1.2-0.3,1.5-0.9c0.4-0.6,0.5-1.3,0.5-2.1c0-0.4-0.1-0.7-0.4-0.7c-0.2,0-0.4,0.1-0.6,0.4c-0.2,0.3-0.5,0.7-0.7,1.2
	C71.5,9.2,71.3,9.8,71.1,10.6z M90.3,5c0.9,0,1.6,0.3,2.1,0.8c0.5,0.5,0.8,1.2,0.8,2c0,0.3,0,0.6-0.1,0.8c-0.2,0.7-0.5,1.2-0.9,1.5
	c-0.4,0.4-1,0.5-1.6,0.5c-0.6,0-1.1-0.1-1.4-0.4C89,10,88.7,9.6,88.5,9.2c-0.1-0.3-0.2-0.5-0.4-0.6c-0.1-0.1-0.2-0.2-0.4-0.2
	c-0.2,0-0.3,0.1-0.4,0.2c-0.1,0.1-0.2,0.4-0.3,0.7l-1.8,6c0,0.1,0,0.2,0,0.4c0,0.2,0.1,0.4,0.2,0.5c0.1,0.1,0.3,0.3,0.5,0.4
	c0.2,0.1,0.3,0.2,0.4,0.3c0.1,0.1,0.1,0.2,0.1,0.3c0,0.2-0.2,0.4-0.4,0.5c-0.2,0.1-0.5,0.1-1,0.1h-6.1c-0.4,0-0.7-0.1-0.9-0.2
	c-0.2-0.1-0.3-0.3-0.2-0.6c0.1-0.2,0.2-0.4,0.5-0.5c0.2-0.1,0.4-0.3,0.6-0.5c0.2-0.2,0.3-0.5,0.4-0.8l2.1-6.9c0-0.1,0-0.2,0-0.3
	c0-0.2,0-0.3-0.1-0.4c-0.1-0.1-0.2-0.2-0.3-0.4c-0.2-0.1-0.3-0.2-0.3-0.3c-0.1-0.1-0.1-0.2,0-0.4c0.1-0.4,0.6-0.7,1.5-1
	C82.9,5.2,83.8,5,84.8,5c0.7,0,1.2,0.2,1.6,0.5c0.4,0.3,0.7,0.7,0.8,1.2C88.1,5.6,89.1,5,90.3,5z"/>
</svg>
